HIERARCHY
ROOT Hips
{
	OFFSET 0.000000 0.000000 0.000000
	CHANNELS 6 Xposition Yposition Zposition Zrotation Yrotation Xrotation 
	JOINT LHipJoint
	{
		OFFSET 0.000000 0.000000 0.000000
		CHANNELS 3 Zrotation Yrotation Xrotation
		JOINT LeftUpLeg
		{
			OFFSET 1.363060 -1.794630 0.839290
			CHANNELS 3 Zrotation Yrotation Xrotation
			JOINT LeftLeg
			{
				OFFSET 2.448110 -6.726130 0.000000
				CHANNELS 3 Zrotation Yrotation Xrotation
				JOINT LeftFoot
				{
					OFFSET 2.562200 -7.039590 0.000000
					CHANNELS 3 Zrotation Yrotation Xrotation
					JOINT LeftToeBase
					{
						OFFSET 0.157640 -0.433110 2.322550
						CHANNELS 3 Zrotation Yrotation Xrotation
						End Site
						{
							OFFSET 0.000000 0.000000 0.000000
						}
					}
				}
			}
		}
	}
	JOINT RHipJoint
	{
		OFFSET 0.000000 0.000000 0.000000
		CHANNELS 3 Zrotation Yrotation Xrotation
		JOINT RightUpLeg
		{
			OFFSET -1.305520 -1.794630 0.839290
			CHANNELS 3 Zrotation Yrotation Xrotation
			JOINT RightLeg
			{
				OFFSET -2.542530 -6.985550 0.000000
				CHANNELS 3 Zrotation Yrotation Xrotation
				JOINT RightFoot
				{
					OFFSET -2.568260 -7.056230 0.000000
					CHANNELS 3 Zrotation Yrotation Xrotation
					JOINT RightToeBase
					{
						OFFSET -0.164730 -0.452590 2.363150
						CHANNELS 3 Zrotation Yrotation Xrotation
						End Site
						{
							OFFSET 0.000000 0.000000 0.000000
						}
					}
				}
			}
		}
	}
}
MOTION
Frames: 16
Frame Time: 0.008333
1.324998 17.558426 0.435063 -174.708011 -61.014214 -168.410407 -12.639773 4.576125 0.232535 -10.051754 34.454996 -19.707670 -3.597341 -0.820740 -3.196843 1.403232 11.479283 8.047756 3.084000 0.000000 -55.208599 8.636866 -2.165848 6.913321 1.414144 8.078441 -18.970786 3.667246 1.890534 -2.483300 1.869464 8.310312 14.414603 2.000599 0.000000 -74.502199
1.315652 17.554518 0.447397 -174.492271 -60.880460 -168.743383 -12.706496 4.597123 0.180753 -9.809602 34.759745 -19.179882 -3.595558 -0.850530 -3.844888 1.361118 11.206328 8.242418 3.034900 0.000000 -55.232100 8.606226 -2.169708 6.960440 1.361117 8.474127 -18.853908 3.645817 1.870649 -2.286489 1.852221 8.159726 14.294911 1.931800 -0.000000 -74.553400
1.306871 17.549899 0.455701 -174.384731 -60.653234 -169.018354 -12.775579 4.621550 0.132693 -9.568113 35.092170 -18.629928 -3.593392 -0.877645 -4.395521 1.324757 10.997007 8.419089 2.999299 0.000000 -55.278100 8.568815 -2.192150 7.040956 1.273907 8.917807 -18.739535 3.619500 1.846738 -2.086632 1.834985 8.035402 14.144559 1.872101 0.000000 -74.610400
1.299183 17.544607 0.459971 -174.375422 -60.350663 -169.228043 -12.842961 4.645890 0.081644 -9.340400 35.454522 -18.105132 -3.595197 -0.898121 -4.798039 1.293628 10.836212 8.544415 2.967599 -0.000000 -55.330600 8.525872 -2.227479 7.144204 1.160970 9.393912 -18.633380 3.589170 1.820075 -1.884061 1.816718 7.923064 13.962489 1.815600 -0.000000 -74.665200
1.293125 17.538801 0.461058 -174.440841 -59.985139 -169.390788 -12.907275 4.665051 0.026582 -9.103904 35.780051 -17.566796 -3.588953 -0.913653 -5.085461 1.277554 10.801163 8.615305 2.962200 0.000000 -55.366600 8.481015 -2.266649 7.249819 1.037406 9.882291 -18.520178 3.555302 1.790008 -1.679418 1.796906 7.821872 13.753114 1.762800 0.000000 -74.714500
1.289238 17.532556 0.459593 -174.565300 -59.575771 -169.515132 -12.964920 4.676210 -0.038046 -8.863829 36.064570 -17.035840 -3.575562 -0.921914 -5.236537 1.276804 10.887368 8.612307 2.978500 0.000000 -55.372400 8.436906 -2.303926 7.346264 0.912125 10.366027 -18.395764 3.518256 1.756869 -1.471399 1.774978 7.725080 13.517271 1.710900 -0.000000 -74.754000
1.287508 17.525882 0.455594 -174.743305 -59.148453 -169.586088 -13.010874 4.678693 -0.113064 -8.655369 36.331728 -16.588158 -3.564099 -0.919885 -5.200165 1.286395 11.043116 8.507647 2.996500 0.000000 -55.343300 8.394627 -2.337795 7.434036 0.784574 10.832161 -18.282159 3.478503 1.722501 -1.256497 1.750510 7.620483 13.252231 1.655100 -0.000000 -74.776400
1.287931 17.518713 0.449861 -174.961316 -58.719400 -169.613025 -13.043783 4.671714 -0.195820 -8.480874 36.562150 -16.224617 -3.551869 -0.908726 -4.991360 1.308373 11.280891 8.299000 3.018200 -0.000000 -55.271601 8.355901 -2.365530 7.507919 0.659171 11.268418 -18.180036 3.436478 1.687235 -1.031401 1.723777 7.509502 12.957559 1.595701 0.000000 -74.781400
1.290101 17.510902 0.442984 -175.211626 -58.305726 -169.592276 -13.062945 4.655805 -0.278527 -8.353142 36.733084 -15.956177 -3.537136 -0.890900 -4.629361 1.344312 11.609673 7.987049 3.044900 0.000000 -55.149600 8.321240 -2.387144 7.568831 0.534113 11.665999 -18.103301 3.392519 1.651854 -0.790865 1.695275 7.394265 12.629700 1.533200 0.000000 -74.769200
1.294238 17.502239 0.435891 -175.484675 -57.917688 -169.545679 -13.068638 4.630621 -0.369491 -8.261946 36.876211 -15.768344 -3.523133 -0.866138 -4.123998 1.389838 11.992673 7.578926 3.064500 0.000000 -54.989000 8.292201 -2.402667 7.613239 0.411040 12.021027 -18.035139 3.346141 1.615381 -0.531908 1.665270 7.282558 12.265198 1.470400 0.000001 -74.744900
1.299157 17.492439 0.428832 -175.777545 -57.570467 -169.452806 -13.061830 4.597841 -0.451769 -8.232029 36.959405 -15.686509 -3.508518 -0.839301 -3.505110 1.446335 12.438186 7.082052 3.079100 -0.000000 -54.781600 8.266413 -2.416560 7.652362 0.282440 12.332698 -18.011868 3.298409 1.579519 -0.250531 1.634580 7.175322 11.861602 1.407100 -0.000000 -74.708600
1.304507 17.481337 0.422380 -176.082551 -57.267462 -169.320853 -13.044318 4.558003 -0.525056 -8.258584 36.988198 -15.695609 -3.493495 -0.812387 -2.803787 1.511928 12.929765 6.512804 3.084500 0.000000 -54.535300 8.243754 -2.429775 7.688186 0.145898 12.604330 -18.034386 3.249625 1.544214 0.053507 1.603712 7.078491 11.418278 1.345600 0.000000 -74.664900
1.309892 17.468870 0.416910 -176.394269 -57.004111 -169.151966 -13.017975 4.512655 -0.589074 -8.339268 36.970140 -15.785868 -3.478916 -0.786437 -2.049288 1.584497 13.447482 5.888756 3.076800 0.000000 -54.258700 8.224023 -2.441663 7.722911 -0.002028 12.842661 -18.106543 3.200392 1.509858 0.379293 1.573326 6.995861 10.938594 1.287100 0.000000 -74.617200
1.314834 17.455094 0.412540 -176.706290 -56.770956 -168.946017 -12.985051 4.464201 -0.643127 -8.469958 36.907383 -15.943174 -3.464799 -0.762173 -1.274014 1.662645 13.978025 5.230760 3.055000 -0.000000 -53.961200 8.207030 -2.450433 7.758114 -0.164724 13.056452 -18.231558 3.151533 1.477328 0.722038 1.543969 6.927981 10.429524 1.232100 -0.000001 -74.567500
1.319082 17.440201 0.409229 -177.013068 -56.558013 -168.705662 -12.947488 4.414965 -0.689014 -8.643618 36.813838 -16.156683 -3.452936 -0.739261 -0.499891 1.743058 14.496049 4.558031 3.016300 -0.000000 -53.656300 8.192513 -2.454744 7.795422 -0.344040 13.256209 -18.407457 3.103694 1.447433 1.074397 1.515810 6.871810 9.900294 1.179800 -0.000000 -74.516401
1.322512 17.424468 0.406959 -177.309314 -56.358345 -168.437218 -12.907404 4.366572 -0.725371 -8.848265 36.683434 -16.403344 -3.441697 -0.718669 0.242424 1.824800 14.997486 3.890754 2.964900 0.000000 -53.352400 8.180077 -2.453831 7.835043 -0.538307 13.448703 -18.627208 3.057662 1.420886 1.424439 1.488886 6.823200 9.364573 1.129800 0.000000 -74.467100
